<svg width="6" height="10" viewBox="0 0 6 10" fill="none" xmlns="http://www.w3.org/2000/svg">
<path d="M1.75027 9.16664C1.6406 9.16728 1.53188 9.14626 1.43035 9.10479C1.32882 9.06332 1.23647 9.00221 1.15861 8.92498C1.0805 8.84751 1.01851 8.75534 0.976199 8.65379C0.933891 8.55224 0.912109 8.44332 0.912109 8.33331C0.912109 8.2233 0.933891 8.11438 0.976199 8.01283C1.01851 7.91128 1.0805 7.81911 1.15861 7.74164L3.91694 4.99998L1.26694 2.24164C1.11173 2.08551 1.02461 1.8743 1.02461 1.65414C1.02461 1.43399 1.11173 1.22278 1.26694 1.06664C1.34441 0.988536 1.43658 0.926541 1.53813 0.884234C1.63968 0.841926 1.7486 0.820145 1.85861 0.820145C1.96862 0.820145 2.07754 0.841926 2.17909 0.884234C2.28064 0.926541 2.37281 0.988536 2.45028 1.06664L5.66694 4.39998C5.81963 4.55575 5.90516 4.76518 5.90516 4.98331C5.90516 5.20144 5.81963 5.41087 5.66694 5.56664L2.33361 8.89998C2.25881 8.98075 2.16875 9.04591 2.06863 9.09168C1.9685 9.13745 1.8603 9.16293 1.75027 9.16664Z" fill="#CCCCCC"/>
</svg>
