<svg width="14" height="11" viewBox="0 0 14 11" fill="none" xmlns="http://www.w3.org/2000/svg">
<path d="M5.21625 11C5.10199 10.9997 4.98902 10.9758 4.88437 10.9299C4.77972 10.8841 4.68562 10.8172 4.60792 10.7334L0.557917 6.42505C0.406522 6.26371 0.325421 6.04883 0.332453 5.8277C0.339486 5.60656 0.434077 5.39728 0.595417 5.24588C0.756757 5.09449 0.97163 5.01338 1.19277 5.02042C1.4139 5.02745 1.62319 5.12204 1.77458 5.28338L5.20792 8.94171L12.2162 1.27505C12.2874 1.18648 12.3758 1.11339 12.4762 1.06027C12.5766 1.00714 12.6868 0.9751 12.8001 0.966113C12.9133 0.957126 13.0272 0.971383 13.1347 1.00801C13.2422 1.04463 13.3411 1.10285 13.4253 1.17909C13.5095 1.25532 13.5772 1.34797 13.6243 1.45133C13.6714 1.5547 13.6969 1.6666 13.6992 1.78016C13.7014 1.89373 13.6805 2.00656 13.6376 2.11172C13.5946 2.21689 13.5307 2.31217 13.4496 2.39171L5.83292 10.725C5.75595 10.8103 5.66218 10.8788 5.55749 10.9261C5.4528 10.9735 5.33946 10.9986 5.22458 11H5.21625Z" fill="#3f3f3f"/>
</svg>