<svg width="25" height="25" viewBox="0 0 25 25" fill="none" xmlns="http://www.w3.org/2000/svg">
<path d="M12.5007 2.08331C10.4404 2.08331 8.42648 2.69424 6.71347 3.83884C5.00045 4.98344 3.66532 6.6103 2.87691 8.51369C2.0885 10.4171 1.88221 12.5115 2.28414 14.5322C2.68607 16.5528 3.67816 18.4089 5.13496 19.8657C6.59176 21.3225 8.44783 22.3146 10.4685 22.7165C12.4891 23.1184 14.5835 22.9121 16.4869 22.1237C18.3903 21.3353 20.0172 20.0002 21.1618 18.2872C22.3064 16.5742 22.9173 14.5602 22.9173 12.5C22.9173 11.132 22.6479 9.7775 22.1244 8.51369C21.6009 7.24989 20.8336 6.10156 19.8664 5.13428C18.8991 4.16701 17.7507 3.39972 16.4869 2.87623C15.2231 2.35275 13.8686 2.08331 12.5007 2.08331ZM12.5007 20.8333C10.8525 20.8333 9.24131 20.3446 7.8709 19.4289C6.50049 18.5132 5.43239 17.2117 4.80166 15.689C4.17093 14.1663 4.0059 12.4907 4.32745 10.8742C4.64899 9.25772 5.44266 7.77286 6.6081 6.60742C7.77354 5.44199 9.25839 4.64831 10.8749 4.32677C12.4914 4.00523 14.167 4.17025 15.6897 4.80098C17.2124 5.43171 18.5139 6.49982 19.4296 7.87023C20.3452 9.24064 20.834 10.8518 20.834 12.5C20.834 14.7101 19.956 16.8297 18.3932 18.3925C16.8304 19.9553 14.7108 20.8333 12.5007 20.8333Z" fill="#FF8B00"/>
<path d="M16.6673 11.4584H13.5423V8.33335C13.5423 8.05709 13.4326 7.79213 13.2372 7.59678C13.0419 7.40143 12.7769 7.29169 12.5007 7.29169C12.2244 7.29169 11.9594 7.40143 11.7641 7.59678C11.5687 7.79213 11.459 8.05709 11.459 8.33335V12.5C11.459 12.7763 11.5687 13.0412 11.7641 13.2366C11.9594 13.4319 12.2244 13.5417 12.5007 13.5417H16.6673C16.9436 13.5417 17.2085 13.4319 17.4039 13.2366C17.5992 13.0412 17.709 12.7763 17.709 12.5C17.709 12.2238 17.5992 11.9588 17.4039 11.7635C17.2085 11.5681 16.9436 11.4584 16.6673 11.4584Z" fill="#FF8B00"/>
</svg>
