<svg width="10" height="10" viewBox="0 0 11 11" fill="none" xmlns="http://www.w3.org/2000/svg">
<path d="M9.875 4.875H6.125V1.125C6.125 0.95924 6.05915 0.800269 5.94194 0.683058C5.82473 0.565848 5.66576 0.5 5.5 0.5C5.33424 0.5 5.17527 0.565848 5.05806 0.683058C4.94085 0.800269 4.875 0.95924 4.875 1.125V4.875H1.125C0.95924 4.875 0.800269 4.94085 0.683058 5.05806C0.565848 5.17527 0.5 5.33424 0.5 5.5C0.5 5.66576 0.565848 5.82473 0.683058 5.94194C0.800269 6.05915 0.95924 6.125 1.125 6.125H4.875V9.875C4.875 10.0408 4.94085 10.1997 5.05806 10.3169C5.17527 10.4342 5.33424 10.5 5.5 10.5C5.66576 10.5 5.82473 10.4342 5.94194 10.3169C6.05915 10.1997 6.125 10.0408 6.125 9.875V6.125H9.875C10.0408 6.125 10.1997 6.05915 10.3169 5.94194C10.4342 5.82473 10.5 5.66576 10.5 5.5C10.5 5.33424 10.4342 5.17527 10.3169 5.05806C10.1997 4.94085 10.0408 4.875 9.875 4.875Z" fill="white"/>
</svg>
