<svg fill="none" xmlns="http://www.w3.org/2000/svg">
  <path
    d="M0.834166 1.75027C0.833531 1.6406 0.854552 1.53188 0.896023 1.43035C0.937493 1.32882 0.998598 1.23647 1.07583 1.15861C1.1533 1.0805 1.24547 1.01851 1.34702 0.976198C1.44857 0.933891 1.55749 0.912109 1.6675 0.912109C1.77751 0.912109 1.88643 0.933891 1.98798 0.976198C2.08953 1.01851 2.1817 1.0805 2.25917 1.15861L5.00083 3.91694L7.75917 1.26694C7.9153 1.11173 8.12651 1.02461 8.34667 1.02461C8.56682 1.02461 8.77803 1.11173 8.93417 1.26694C9.01227 1.34441 9.07427 1.43658 9.11658 1.53813C9.15888 1.63968 9.18066 1.7486 9.18066 1.85861C9.18066 1.96862 9.15888 2.07754 9.11658 2.17909C9.07427 2.28064 9.01227 2.37281 8.93417 2.45028L5.60083 5.66694C5.44506 5.81963 5.23563 5.90516 5.0175 5.90516C4.79937 5.90516 4.58994 5.81963 4.43417 5.66694L1.10083 2.33361C1.02005 2.25881 0.9549 2.16875 0.909129 2.06862C0.863358 1.9685 0.83788 1.8603 0.834166 1.75027Z"
    fill="#FF8B00" />
</svg>