<svg viewBox="0 0 25 25" fill="none" xmlns="http://www.w3.org/2000/svg">
<path d="M0.877206 15.4217V4.78506C0.877206 4.19401 1.35633 3.71484 1.94743 3.71484H12.5786C13.1696 3.71484 13.6487 4.19401 13.6487 4.78506V15.4217C13.6487 15.6187 13.4891 15.7784 13.292 15.7784H1.23395C1.03689 15.7784 0.877206 15.6187 0.877206 15.4217ZM9.46217 19.0655C9.46217 20.2914 8.46834 21.2852 7.24248 21.2852C6.01663 21.2852 5.02279 20.2914 5.02279 19.0655C5.02279 17.8396 6.01663 16.8458 7.24248 16.8458C8.46834 16.8458 9.46217 17.8396 9.46217 19.0655ZM8.35229 19.0655C8.35229 18.4526 7.85539 17.9557 7.24244 17.9557C6.62949 17.9557 6.13256 18.4526 6.13256 19.0655C6.13256 19.6785 6.62949 20.1754 7.24244 20.1754C7.85539 20.1754 8.35229 19.6785 8.35229 19.0655ZM5.33068 16.8458H0.35674C0.159722 16.8458 0 17.0055 0 17.2025V18.2849C0 18.4819 0.159722 18.6416 0.35674 18.6416H4.34359C4.44767 17.9274 4.80817 17.2965 5.33068 16.8458ZM21.0759 19.0655C21.0759 20.2914 20.0821 21.2852 18.8562 21.2852C17.6303 21.2852 16.6365 20.2914 16.6365 19.0655C16.6365 17.8396 17.6303 16.8458 18.8562 16.8458C20.0821 16.8458 21.0759 17.8396 21.0759 19.0655ZM19.9661 19.0655C19.9661 18.4526 19.4692 17.9557 18.8562 17.9557C18.2432 17.9557 17.7464 18.4526 17.7464 19.0655C17.7464 19.6785 18.2433 20.1754 18.8562 20.1754C19.4692 20.1754 19.9661 19.6785 19.9661 19.0655ZM25 17.2025V18.2849C25 18.4819 24.8403 18.6416 24.6433 18.6416H21.755C21.5484 17.2248 20.3291 16.1323 18.8563 16.1323C17.3832 16.1323 16.1638 17.2248 15.9572 18.6416H10.1414C10.0373 17.9274 9.6768 17.2965 9.15429 16.8458H14.6688V6.64192C14.6688 6.24789 14.9882 5.92845 15.3822 5.92845H18.7501C19.6984 5.92845 20.5847 6.39948 21.1153 7.18539L23.2864 10.4011C23.6049 10.8728 23.7751 11.4289 23.7751 11.9981V16.8458H24.6433C24.8403 16.8458 25 17.0055 25 17.2025ZM21.381 10.4835L19.6449 8.01643C19.5781 7.9215 19.4692 7.865 19.3531 7.865H16.645C16.448 7.865 16.2883 8.02473 16.2883 8.22174V10.6888C16.2883 10.8858 16.448 11.0455 16.645 11.0455H21.0894C21.3784 11.0455 21.5474 10.7198 21.381 10.4835Z" fill="#FF8B00"/>
</svg>
