<svg width="25" height="25" viewBox="0 0 25 25" fill="none" xmlns="http://www.w3.org/2000/svg">

<path d="M20.7448 13.5708C20.3406 13.0604 20.4562 12.8333 20.7448 12.3771C20.75 12.3719 24.0865 7.76144 24.4302 6.1979L24.4323 6.19685C24.6031 5.62706 24.4323 5.20831 23.6062 5.20831H20.8729C20.1771 5.20831 19.8562 5.56769 19.6844 5.96977C19.6844 5.96977 18.2927 9.30102 16.324 11.4604C15.6885 12.0844 15.3948 12.2844 15.0479 12.2844C14.8771 12.2844 14.6115 12.0844 14.6115 11.5146V6.19685C14.6115 5.51352 14.4167 5.20831 13.8406 5.20831H9.54271C9.10625 5.20831 8.84687 5.52706 8.84687 5.82394C8.84687 6.47185 9.83125 6.62081 9.93333 8.44373V12.3989C9.93333 13.2656 9.77604 13.425 9.42708 13.425C8.49792 13.425 6.24271 10.0802 4.90625 6.25206C4.63646 5.50935 4.37292 5.20935 3.67188 5.20935H0.9375C0.157292 5.20935 0 5.56873 0 5.97081C0 6.68123 0.929166 10.2135 4.32083 14.8802C6.58125 18.0656 9.76458 19.7916 12.6604 19.7916C14.401 19.7916 14.6135 19.4083 14.6135 18.7489C14.6135 15.7052 14.4562 15.4177 15.3281 15.4177C15.7323 15.4177 16.4281 15.6177 18.0531 17.1541C19.9104 18.976 20.2156 19.7916 21.2552 19.7916H23.9885C24.7677 19.7916 25.1625 19.4083 24.9354 18.6521C24.4156 17.0614 20.9031 13.7896 20.7448 13.5708Z" fill="#FF8B00"/>

</svg>
