<svg width="25" height="25" viewBox="0 0 25 25" fill="none" xmlns="http://www.w3.org/2000/svg">
<path d="M18.75 4.16671H17.7083V3.12504C17.7083 2.84877 17.5986 2.58382 17.4032 2.38847C17.2079 2.19312 16.9429 2.08337 16.6667 2.08337C16.3904 2.08337 16.1254 2.19312 15.9301 2.38847C15.7347 2.58382 15.625 2.84877 15.625 3.12504V4.16671H9.375V3.12504C9.375 2.84877 9.26525 2.58382 9.0699 2.38847C8.87455 2.19312 8.6096 2.08337 8.33333 2.08337C8.05707 2.08337 7.79211 2.19312 7.59676 2.38847C7.40141 2.58382 7.29167 2.84877 7.29167 3.12504V4.16671H6.25C5.4212 4.16671 4.62634 4.49595 4.04029 5.082C3.45424 5.66805 3.125 6.46291 3.125 7.29171V19.7917C3.125 20.6205 3.45424 21.4154 4.04029 22.0014C4.62634 22.5875 5.4212 22.9167 6.25 22.9167H18.75C19.5788 22.9167 20.3737 22.5875 20.9597 22.0014C21.5458 21.4154 21.875 20.6205 21.875 19.7917V7.29171C21.875 6.46291 21.5458 5.66805 20.9597 5.082C20.3737 4.49595 19.5788 4.16671 18.75 4.16671ZM6.25 6.25004H7.29167V7.29171C7.29167 7.56798 7.40141 7.83293 7.59676 8.02828C7.79211 8.22363 8.05707 8.33337 8.33333 8.33337C8.6096 8.33337 8.87455 8.22363 9.0699 8.02828C9.26525 7.83293 9.375 7.56798 9.375 7.29171V6.25004H15.625V7.29171C15.625 7.56798 15.7347 7.83293 15.9301 8.02828C16.1254 8.22363 16.3904 8.33337 16.6667 8.33337C16.9429 8.33337 17.2079 8.22363 17.4032 8.02828C17.5986 7.83293 17.7083 7.56798 17.7083 7.29171V6.25004H18.75C19.0263 6.25004 19.2912 6.35979 19.4866 6.55514C19.6819 6.75049 19.7917 7.01544 19.7917 7.29171V11.4584H5.20833V7.29171C5.20833 7.01544 5.31808 6.75049 5.51343 6.55514C5.70878 6.35979 5.97373 6.25004 6.25 6.25004ZM18.75 20.8334H6.25C5.97373 20.8334 5.70878 20.7236 5.51343 20.5283C5.31808 20.3329 5.20833 20.068 5.20833 19.7917V13.5417H19.7917V19.7917C19.7917 20.068 19.6819 20.3329 19.4866 20.5283C19.2912 20.7236 19.0263 20.8334 18.75 20.8334Z" fill="#FF8B00"/>
<path d="M8.33268 17.7083C8.90798 17.7083 9.37435 17.242 9.37435 16.6667C9.37435 16.0914 8.90798 15.625 8.33268 15.625C7.75739 15.625 7.29102 16.0914 7.29102 16.6667C7.29102 17.242 7.75739 17.7083 8.33268 17.7083Z" fill="#FF8B00"/>
<path d="M16.6673 15.625H12.5007C12.2244 15.625 11.9594 15.7347 11.7641 15.9301C11.5687 16.1254 11.459 16.3904 11.459 16.6667C11.459 16.9429 11.5687 17.2079 11.7641 17.4032C11.9594 17.5986 12.2244 17.7083 12.5007 17.7083H16.6673C16.9436 17.7083 17.2085 17.5986 17.4039 17.4032C17.5992 17.2079 17.709 16.9429 17.709 16.6667C17.709 16.3904 17.5992 16.1254 17.4039 15.9301C17.2085 15.7347 16.9436 15.625 16.6673 15.625Z" fill="#FF8B00"/>
</svg>
