<svg viewBox="0 0 40 40" fill="none" xmlns="http://www.w3.org/2000/svg">
<g clip-path="url(#clip0)">
<path d="M39.7708 14.605C39.5751 14.3664 39.2832 14.2271 38.977 14.2271H35.084C34.1233 11.6932 32.8718 9.21059 31.4492 8.27345C26.5279 5.03597 13.4745 5.03597 8.55324 8.27345C7.12961 9.21162 5.88316 11.6973 4.91734 14.2271H1.02437C0.715065 14.2271 0.424193 14.3664 0.23062 14.605C0.0360227 14.8426 -0.0418162 15.1571 0.0216839 15.4592L0.598307 18.2532C0.69663 18.7295 1.11655 19.0695 1.601 19.0695H2.75424C1.64094 20.3539 1.10119 21.9711 1.09402 23.5893C1.08685 25.5885 1.84578 27.3952 3.23356 28.6734C3.24893 28.6867 3.26429 28.6959 3.27863 28.7092V32.6186C3.27863 33.4656 3.96689 34.1549 4.81492 34.1549H8.40576C9.25379 34.1549 9.94205 33.4656 9.94205 32.6186V31.0475H30.0583V32.6186C30.0583 33.4656 30.7466 34.1549 31.5946 34.1549H35.1854C36.0314 34.1549 36.7217 33.4656 36.7217 32.6186V28.7861C38.1945 27.4372 38.8981 25.5814 38.9074 23.7286C38.9135 22.055 38.3492 20.3784 37.1703 19.0675H38.4004C38.8869 19.0675 39.3068 18.7274 39.4031 18.2502L39.9807 15.4572C40.0401 15.1571 39.9654 14.8447 39.7708 14.605ZM10.2401 10.8391C14.1628 8.25706 25.8376 8.25706 29.7582 10.8391C30.5202 11.3389 31.5004 13.3596 32.3986 15.8341H7.60176C8.49794 13.3606 9.47809 11.3409 10.2401 10.8391ZM5.64555 23.9744C5.64555 22.3049 6.99954 20.953 8.66795 20.953C10.3384 20.953 11.6904 22.3049 11.6904 23.9744C11.6904 25.6438 10.3384 26.9968 8.66795 26.9968C6.99954 26.9968 5.64555 25.6438 5.64555 23.9744ZM31.3723 26.9968C29.7039 26.9968 28.3499 25.6438 28.3499 23.9744C28.3499 22.3049 29.7039 20.953 31.3723 20.953C33.0428 20.953 34.3947 22.3049 34.3947 23.9744C34.3947 25.6438 33.0408 26.9968 31.3723 26.9968Z" fill="#FF8B00"/>
</g>
<defs>
<clipPath id="clip0">
<rect width="40" height="39.999" fill="white"/>
</clipPath>
</defs>
</svg>
