<svg width="13" height="13" viewBox="0 0 13 13" fill="none" xmlns="http://www.w3.org/2000/svg">
<path d="M7.96893 6.49999L12.4481 2.03124C12.6442 1.83509 12.7544 1.56905 12.7544 1.29166C12.7544 1.01426 12.6442 0.748223 12.4481 0.552073C12.2519 0.355923 11.9859 0.245728 11.7085 0.245728C11.4311 0.245728 11.1651 0.355923 10.9689 0.552073L6.50018 5.03124L2.03143 0.552073C1.83528 0.355923 1.56924 0.245728 1.29185 0.245728C1.01445 0.245728 0.748414 0.355923 0.552264 0.552073C0.356114 0.748223 0.245918 1.01426 0.245918 1.29166C0.245918 1.56905 0.356114 1.83509 0.552264 2.03124L5.03143 6.49999L0.552264 10.9687C0.45463 11.0656 0.377136 11.1808 0.324252 11.3077C0.271368 11.4347 0.244141 11.5708 0.244141 11.7083C0.244141 11.8458 0.271368 11.982 0.324252 12.1089C0.377136 12.2359 0.45463 12.3511 0.552264 12.4479C0.6491 12.5455 0.76431 12.623 0.891246 12.6759C1.01818 12.7288 1.15433 12.756 1.29185 12.756C1.42936 12.756 1.56551 12.7288 1.69245 12.6759C1.81938 12.623 1.93459 12.5455 2.03143 12.4479L6.50018 7.96874L10.9689 12.4479C11.0658 12.5455 11.181 12.623 11.3079 12.6759C11.4349 12.7288 11.571 12.756 11.7085 12.756C11.846 12.756 11.9822 12.7288 12.1091 12.6759C12.2361 12.623 12.3513 12.5455 12.4481 12.4479C12.5457 12.3511 12.6232 12.2359 12.6761 12.1089C12.729 11.982 12.7562 11.8458 12.7562 11.7083C12.7562 11.5708 12.729 11.4347 12.6761 11.3077C12.6232 11.1808 12.5457 11.0656 12.4481 10.9687L7.96893 6.49999Z" fill="#FF0000"/>
</svg>
