<svg width="30" height="30" viewBox="0 0 30 30" fill="none" xmlns="http://www.w3.org/2000/svg">
<path d="M29.999 6.73794V2.69518C29.999 1.20668 28.7923 0 27.3038 0H12.0702C10.5817 0 9.375 1.20668 9.375 2.69518V6.73794C9.375 6.89971 9.50618 7.03089 9.66795 7.03089H29.706C29.8678 7.03089 29.999 6.89971 29.999 6.73794Z" fill="#FF8B00"/>
<path d="M9.375 9.19872V10.4291C9.375 11.9176 10.5817 13.1243 12.0702 13.1243H27.3038C28.7923 13.1243 29.999 11.9176 29.999 10.4291V9.19872C29.999 9.03695 29.8678 8.90576 29.706 8.90576H9.66795C9.50618 8.90576 9.375 9.03695 9.375 9.19872Z" fill="#FF8B00"/>
<path d="M29.3366 22.2453C28.8093 20.8391 27.3615 20.0416 25.8916 20.347L20.3321 21.4301C20.2136 21.4532 20.1229 21.547 20.1002 21.6655C19.8314 23.0725 18.5926 24.1393 17.1085 24.1393H13.1508C12.6461 24.1393 12.2117 23.7514 12.1879 23.2472C12.1626 22.7089 12.5916 22.2644 13.1243 22.2644H17.1085C17.3454 22.2644 17.5659 22.1937 17.7502 22.0722C18.039 21.882 18.217 21.5644 18.2585 21.2211C18.2787 21.0534 18.2853 20.8815 18.2765 20.7065C18.1945 19.0757 16.8141 17.8115 15.1813 17.8115H10.9732L4.58783 15.0749C4.47118 15.0249 4.3455 14.9991 4.21854 14.9991H0.937452C0.419686 14.9991 0 15.4188 0 15.9366V26.522C0 27.0398 0.419686 27.4595 0.937452 27.4595H3.61851L11.6122 29.7433C12.2113 29.9145 12.8232 29.9999 13.4346 29.9999C14.1556 29.9999 14.8757 29.881 15.571 29.6439L27.3833 26.1994C27.3878 26.198 27.3925 26.1966 27.397 26.1952C28.1897 25.9508 28.854 25.3835 29.2196 24.6389C29.5852 23.8945 29.6278 23.022 29.3366 22.2453Z" fill="#FF8B00"/>
</svg>
