<svg width="40" height="40" viewBox="0 0 40 40" fill="none" xmlns="http://www.w3.org/2000/svg">
<path d="M40 12.7344V10.625C40 8.20875 38.0412 6.25 35.625 6.25H4.375C1.95875 6.25 0 8.20875 0 10.625V12.7344C0 12.9501 0.174922 13.125 0.390625 13.125H39.6094C39.8251 13.125 40 12.9501 40 12.7344Z" fill="#FF8B00"/>
<path d="M0 16.0156V29.375C0 31.7913 1.95875 33.75 4.375 33.75H35.625C38.0412 33.75 40 31.7913 40 29.375V16.0156C40 15.7999 39.8251 15.625 39.6094 15.625H0.390625C0.174922 15.625 0 15.7999 0 16.0156ZM10 26.25C10 26.9403 9.44031 27.5 8.75 27.5H7.5C6.80969 27.5 6.25 26.9403 6.25 26.25V25C6.25 24.3097 6.80969 23.75 7.5 23.75H8.75C9.44031 23.75 10 24.3097 10 25V26.25Z" fill="#FF8B00"/>
</svg>
