<svg width="25" height="25" viewBox="0 0 25 25" fill="none" xmlns="http://www.w3.org/2000/svg">
<path d="M21.2607 6.13541L17.0941 4.26041H16.2399L12.5003 5.93749L8.76075 4.26041H8.70866L8.58366 4.16666H7.95867L3.792 6.04166C3.58418 6.12129 3.40732 6.26539 3.28735 6.45285C3.16738 6.6403 3.1106 6.86125 3.12533 7.08332V19.7917C3.12562 19.9659 3.16964 20.1374 3.25336 20.2902C3.33707 20.4431 3.4578 20.5725 3.6045 20.6667C3.77216 20.775 3.9674 20.8328 4.167 20.8333C4.31439 20.8326 4.45996 20.8007 4.59408 20.7396L8.33367 19.0625L12.0732 20.7396H12.1253C12.2427 20.7945 12.3707 20.8229 12.5003 20.8229C12.6299 20.8229 12.7579 20.7945 12.8753 20.7396H12.9274L16.667 19.0625L20.4066 20.7396C20.5407 20.8007 20.6863 20.8326 20.8337 20.8333C21.0333 20.8328 21.2285 20.775 21.3962 20.6667C21.5429 20.5725 21.6636 20.4431 21.7473 20.2902C21.831 20.1374 21.875 19.9659 21.8753 19.7917V7.08332C21.8749 6.88295 21.8167 6.68694 21.7077 6.51881C21.5987 6.35068 21.4435 6.21756 21.2607 6.13541ZM5.20867 7.74999L7.292 6.82291V17.2396L5.20867 18.1667V7.74999ZM9.37533 6.82291L11.4587 7.74999V18.1667L9.37533 17.2396V6.82291ZM13.542 7.74999L15.6253 6.82291V17.2396L13.542 18.1667V7.74999ZM19.792 18.1667L17.7087 17.2396V6.82291L19.792 7.74999V18.1667Z" fill="#FF8B00"/>
</svg>
