<svg width="25" height="25" viewBox="0 0 25 25" fill="none" xmlns="http://www.w3.org/2000/svg">
<path d="M19.7923 4.16669H5.20898C4.38018 4.16669 3.58533 4.49593 2.99928 5.08198C2.41322 5.66803 2.08398 6.46289 2.08398 7.29169V17.7084C2.08398 18.5372 2.41322 19.332 2.99928 19.9181C3.58533 20.5041 4.38018 20.8334 5.20898 20.8334H19.7923C20.6211 20.8334 21.416 20.5041 22.002 19.9181C22.5881 19.332 22.9173 18.5372 22.9173 17.7084V7.29169C22.9173 6.46289 22.5881 5.66803 22.002 5.08198C21.416 4.49593 20.6211 4.16669 19.7923 4.16669ZM19.0944 6.25002L12.5007 11.1979L5.9069 6.25002H19.0944ZM19.7923 18.75H5.20898C4.93272 18.75 4.66777 18.6403 4.47242 18.4449C4.27706 18.2496 4.16732 17.9846 4.16732 17.7084V7.5521L11.8757 13.3334C12.056 13.4686 12.2753 13.5417 12.5007 13.5417C12.726 13.5417 12.9453 13.4686 13.1257 13.3334L20.834 7.5521V17.7084C20.834 17.9846 20.7242 18.2496 20.5289 18.4449C20.3335 18.6403 20.0686 18.75 19.7923 18.75Z" fill="#FF8B00"/>
</svg>
