<svg width="25" height="25" viewBox="0 0 25 25" fill="none" xmlns="http://www.w3.org/2000/svg">
<path d="M17.7077 2.08331H7.29102C6.46221 2.08331 5.66736 2.41255 5.08131 2.9986C4.49526 3.58466 4.16602 4.37951 4.16602 5.20831V19.7916C4.16602 20.6204 4.49526 21.4153 5.08131 22.0014C5.66736 22.5874 6.46221 22.9166 7.29102 22.9166H17.7077C18.5365 22.9166 19.3313 22.5874 19.9174 22.0014C20.5034 21.4153 20.8327 20.6204 20.8327 19.7916V5.20831C20.8327 4.37951 20.5034 3.58466 19.9174 2.9986C19.3313 2.41255 18.5365 2.08331 17.7077 2.08331ZM18.7493 19.7916C18.7493 20.0679 18.6396 20.3329 18.4443 20.5282C18.2489 20.7236 17.9839 20.8333 17.7077 20.8333H7.29102C7.01475 20.8333 6.7498 20.7236 6.55445 20.5282C6.3591 20.3329 6.24935 20.0679 6.24935 19.7916V5.20831C6.24935 4.93205 6.3591 4.66709 6.55445 4.47174C6.7498 4.27639 7.01475 4.16665 7.29102 4.16665H17.7077C17.9839 4.16665 18.2489 4.27639 18.4443 4.47174C18.6396 4.66709 18.7493 4.93205 18.7493 5.20831V19.7916Z" fill="#FF8B00"/>
<path d="M12.5 18.75C13.3629 18.75 14.0625 18.0504 14.0625 17.1875C14.0625 16.3246 13.3629 15.625 12.5 15.625C11.6371 15.625 10.9375 16.3246 10.9375 17.1875C10.9375 18.0504 11.6371 18.75 12.5 18.75Z" fill="#FF8B00"/>
<path d="M15.1035 6.25H9.89518C9.61892 6.25 9.35396 6.35975 9.15861 6.5551C8.96326 6.75045 8.85352 7.0154 8.85352 7.29167C8.85352 7.56793 8.96326 7.83289 9.15861 8.02824C9.35396 8.22359 9.61892 8.33333 9.89518 8.33333H15.1035C15.3798 8.33333 15.6447 8.22359 15.8401 8.02824C16.0354 7.83289 16.1452 7.56793 16.1452 7.29167C16.1452 7.0154 16.0354 6.75045 15.8401 6.5551C15.6447 6.35975 15.3798 6.25 15.1035 6.25Z" fill="#FF8B00"/>
</svg>
