<svg width="25" height="25" viewBox="0 0 25 25" fill="none" xmlns="http://www.w3.org/2000/svg">
<path d="M13.5417 8.26612C14.3705 8.26612 15.1653 8.5927 15.7514 9.17403C16.3374 9.75535 16.6667 10.5438 16.6667 11.3659C16.6667 11.64 16.7764 11.9028 16.9718 12.0965C17.1671 12.2903 17.4321 12.3992 17.7083 12.3992C17.9846 12.3992 18.2496 12.2903 18.4449 12.0965C18.6403 11.9028 18.75 11.64 18.75 11.3659C18.75 9.99572 18.2013 8.68164 17.2245 7.71277C16.2478 6.74389 14.923 6.19958 13.5417 6.19958C13.2654 6.19958 13.0004 6.30845 12.8051 6.50222C12.6097 6.696 12.5 6.95881 12.5 7.23285C12.5 7.50689 12.6097 7.76971 12.8051 7.96348C13.0004 8.15726 13.2654 8.26612 13.5417 8.26612Z" fill="#FF8B00"/>
<path d="M13.5417 4.13306C15.4755 4.13306 17.3302 4.89509 18.6977 6.25152C20.0651 7.60794 20.8333 9.44765 20.8333 11.3659C20.8333 11.64 20.9431 11.9028 21.1384 12.0966C21.3338 12.2903 21.5987 12.3992 21.875 12.3992C22.1513 12.3992 22.4162 12.2903 22.6116 12.0966C22.8069 11.9028 22.9167 11.64 22.9167 11.3659C22.9167 8.89957 21.9289 6.53423 20.1708 4.79026C18.4126 3.04628 16.0281 2.06653 13.5417 2.06653C13.2654 2.06653 13.0004 2.17539 12.8051 2.36916C12.6097 2.56294 12.5 2.82576 12.5 3.09979C12.5 3.37383 12.6097 3.63665 12.8051 3.83042C13.0004 4.0242 13.2654 4.13306 13.5417 4.13306Z" fill="#FF8B00"/>
<path d="M22.6569 16.4393C22.5996 16.2734 22.5007 16.1247 22.3695 16.0072C22.2383 15.8897 22.0791 15.8073 21.9069 15.7676L15.6569 14.3521C15.4873 14.3139 15.3107 14.3185 15.1433 14.3654C14.9759 14.4124 14.823 14.5001 14.6986 14.6207C14.5527 14.755 14.5423 14.7654 13.8652 16.0466C11.6186 15.0197 9.81835 13.2267 8.79232 10.9939C10.1152 10.3327 10.1257 10.3327 10.2611 10.1777C10.3826 10.0543 10.4711 9.9026 10.5184 9.73655C10.5657 9.5705 10.5704 9.39534 10.5319 9.22706L9.10482 3.09979C9.06487 2.92899 8.98175 2.77108 8.8633 2.64093C8.74485 2.51078 8.59496 2.41267 8.42773 2.35584C8.18447 2.26966 7.93327 2.20736 7.67773 2.16985C7.41446 2.1093 7.14579 2.07469 6.87565 2.06653C5.60482 2.06653 4.38604 2.56729 3.48743 3.45866C2.58882 4.35002 2.08398 5.55897 2.08398 6.81955C2.0895 11.0381 3.78137 15.0823 6.78857 18.0652C9.79577 21.0482 13.8728 22.7264 18.1257 22.7319C18.7549 22.7319 19.378 22.6089 19.9593 22.37C20.5407 22.1312 21.0689 21.7811 21.5139 21.3397C21.9588 20.8984 22.3118 20.3744 22.5526 19.7977C22.7934 19.2211 22.9173 18.603 22.9173 17.9788C22.9176 17.7158 22.8967 17.4532 22.8548 17.1935C22.811 16.9369 22.7448 16.6845 22.6569 16.4393ZM18.1257 20.6653C14.4245 20.6626 10.8758 19.203 8.25867 16.607C5.64157 14.011 4.17008 10.4908 4.16732 6.81955C4.17006 6.10789 4.45628 5.42615 4.9636 4.92292C5.47092 4.4197 6.1582 4.13578 6.87565 4.13306H7.2194L8.33398 8.92742L7.77148 9.21673C6.87565 9.6817 6.16732 10.0537 6.54232 10.8596C7.15297 12.5744 8.14104 14.1327 9.43475 15.4214C10.7285 16.71 12.2953 17.6966 14.0215 18.3095C14.8965 18.6608 15.2402 18.0098 15.709 17.1109L16.0111 16.5426L20.834 17.6378V17.9788C20.8312 18.6905 20.545 19.3722 20.0377 19.8755C19.5304 20.3787 18.8431 20.6626 18.1257 20.6653Z" fill="#FF8B00"/>
</svg>
