<svg width="25" height="25" viewBox="0 0 25 25" fill="none" xmlns="http://www.w3.org/2000/svg">
<path d="M18.1006 0H6.89891C3.09485 0 0 3.095 0 6.89906V18.1008C0 21.905 3.09485 24.9999 6.89891 24.9999H18.1006C21.905 24.9999 24.9999 21.9049 24.9999 18.1008V6.89906C25 3.095 21.905 0 18.1006 0ZM22.7819 18.1008C22.7819 20.6819 20.6819 22.7817 18.1008 22.7817H6.89891C4.31792 22.7819 2.21811 20.6819 2.21811 18.1008V6.89906C2.21811 4.31806 4.31792 2.21811 6.89891 2.21811H18.1006C20.6818 2.21811 22.7817 4.31806 22.7817 6.89906V18.1008H22.7819Z" fill="#FF8B00"/>
<path d="M12.4985 6.05841C8.94639 6.05841 6.05664 8.94816 6.05664 12.5002C6.05664 16.0522 8.94639 18.9418 12.4985 18.9418C16.0505 18.9418 18.9403 16.0522 18.9403 12.5002C18.9403 8.94816 16.0505 6.05841 12.4985 6.05841ZM12.4985 16.7235C10.1696 16.7235 8.27475 14.829 8.27475 12.5001C8.27475 10.1711 10.1695 8.27637 12.4985 8.27637C14.8275 8.27637 16.7222 10.1711 16.7222 12.5001C16.7222 14.829 14.8273 16.7235 12.4985 16.7235Z" fill="#FF8B00"/>
<path d="M19.2106 4.17761C18.7832 4.17761 18.3634 4.35062 18.0616 4.65377C17.7583 4.95543 17.584 5.37539 17.584 5.80422C17.584 6.23173 17.7585 6.65154 18.0616 6.95468C18.3633 7.25635 18.7832 7.43084 19.2106 7.43084C19.6394 7.43084 20.0579 7.25635 20.3611 6.95468C20.6642 6.65154 20.8372 6.23158 20.8372 5.80422C20.8372 5.37539 20.6642 4.95543 20.3611 4.65377C20.0594 4.35062 19.6394 4.17761 19.2106 4.17761Z" fill="#FF8B00"/>
</svg>
