<svg width="25" height="25" fill="none" xmlns="http://www.w3.org/2000/svg"><g clip-path="url(#clip0)"><path d="M23.718 4.167H1.282C.577 4.167 0 4.744 0 5.449V19.55c0 .705.577 1.282 1.282 1.282h22.436c.705 0 1.282-.577 1.282-1.282V5.45c0-.705-.577-1.282-1.282-1.282zm-.481.961l-10 7.5c-.18.137-.455.223-.737.221a1.251 1.251 0 01-.738-.22l-9.999-7.5h21.474zm-5.341 7.995l5.448 6.73c.006.008.012.013.018.019H1.638l.018-.018 5.448-6.73a.48.48 0 00-.747-.606L.962 19.183V5.729l10.224 7.668c.384.287.852.413 1.314.414.461-.001.93-.127 1.314-.414L24.038 5.73v13.454l-5.395-6.665a.48.48 0 10-.748.605z" fill="#FF8B00"/></g><defs><clipPath id="clip0"><path fill="#fff" d="M0 0h25v25H0z"/></clipPath></defs></svg>