<svg width="25" height="25" fill="none" xmlns="http://www.w3.org/2000/svg"><path d="M7.292 2.383h10.417a2.825 2.825 0 012.825 2.825v14.584a2.825 2.825 0 01-2.825 2.825H7.292a2.825 2.825 0 01-2.825-2.825V5.208a2.825 2.825 0 012.825-2.825zM18.657 20.74c.252-.251.393-.592.393-.948V5.208a1.342 1.342 0 00-1.341-1.341H7.292A1.342 1.342 0 005.95 5.208v14.584a1.342 1.342 0 001.342 1.341h10.417c.355 0 .697-.141.948-.393z" fill="#FF8B00" stroke="#1B1B1B" stroke-width=".6"/><path d="M13.762 17.188a1.262 1.262 0 11-2.524 0 1.262 1.262 0 012.524 0zM9.896 6.55h5.208a.742.742 0 010 1.483H9.896a.742.742 0 010-1.483z" fill="#FF8B00" stroke="#1B1B1B" stroke-width=".6"/></svg>