<svg width="25" height="25" viewBox="0 0 25 25" fill="none" xmlns="http://www.w3.org/2000/svg">
<path d="M7.29199 2.38333H17.7087C18.4579 2.38333 19.1764 2.68097 19.7062 3.21076C20.236 3.74055 20.5337 4.4591 20.5337 5.20833V19.7917C20.5337 20.5409 20.236 21.2595 19.7062 21.7892C19.1764 22.319 18.4579 22.6167 17.7087 22.6167H7.29199C6.54276 22.6167 5.82421 22.319 5.29442 21.7892C4.76463 21.2595 4.46699 20.5409 4.46699 19.7917V5.20833C4.46699 4.4591 4.76463 3.74055 5.29442 3.21076C5.82421 2.68097 6.54276 2.38333 7.29199 2.38333ZM18.6574 20.7404C18.909 20.4888 19.0503 20.1475 19.0503 19.7917V5.20833C19.0503 4.8525 18.909 4.51124 18.6574 4.25963C18.4057 4.00802 18.0645 3.86667 17.7087 3.86667H7.29199C6.93616 3.86667 6.5949 4.00802 6.34329 4.25963C6.09168 4.51124 5.95033 4.8525 5.95033 5.20833V19.7917C5.95033 20.1475 6.09168 20.4888 6.34329 20.7404C6.5949 20.992 6.93616 21.1333 7.29199 21.1333H17.7087C18.0645 21.1333 18.4057 20.992 18.6574 20.7404Z" fill="#FF8B00" stroke="#1B1B1B" stroke-width="0.6"/>
<path d="M13.7625 17.1875C13.7625 17.8848 13.1973 18.45 12.5 18.45C11.8027 18.45 11.2375 17.8848 11.2375 17.1875C11.2375 16.4902 11.8027 15.925 12.5 15.925C13.1973 15.925 13.7625 16.4902 13.7625 17.1875Z" fill="#FF8B00" stroke="#1B1B1B" stroke-width="0.6"/>
<path d="M9.89616 6.55H15.1045C15.3012 6.55 15.4898 6.62814 15.6289 6.76723C15.768 6.90632 15.8462 7.09496 15.8462 7.29167C15.8462 7.48837 15.768 7.67701 15.6289 7.8161C15.4898 7.95519 15.3012 8.03333 15.1045 8.03333H9.89616C9.69946 8.03333 9.51081 7.95519 9.37172 7.8161C9.23263 7.67701 9.15449 7.48837 9.15449 7.29167C9.15449 7.09496 9.23263 6.90632 9.37172 6.76723C9.51081 6.62814 9.69946 6.55 9.89616 6.55Z" fill="#FF8B00" stroke="#1B1B1B" stroke-width="0.6"/>
</svg>
