<svg width="20" height="22" fill="none" xmlns="http://www.w3.org/2000/svg"><path d="M12.32 12.974h0l.005-.005a.691.691 0 01.297-.182.654.654 0 01.338-.009l5.999 1.438s0 0 0 0a.69.69 0 01.309.17.756.756 0 01.197.314l.285-.093-.284.097a4.445 4.445 0 01.234 1.468v0a4.73 4.73 0 01-.33 1.739 4.554 4.554 0 01-.935 1.47c-.4.42-.874.752-1.394.979a4.11 4.11 0 01-1.64.343c-3.999-.006-7.835-1.676-10.667-4.65C1.9 13.079.305 9.043.3 4.83a4.65 4.65 0 011.265-3.208A4.192 4.192 0 014.595.3c.237.008.473.04.704.096L5.311.4h.013c.225.035.446.093.66.174h0l.004.001a.71.71 0 01.293.203c.08.094.138.21.166.336l1.37 6.226s0 0 0 0a.801.801 0 01-.01.376.764.764 0 01-.177.322l-.006.007-.005.007a.414.414 0 01-.058.062c-.02.016-.056.042-.14.091-.152.089-.415.228-.922.497l-.2.105-.245.13.11.255c1.013 2.332 2.792 4.21 5.015 5.285l.267.13.132-.266c.327-.654.488-.975.586-1.15a1.28 1.28 0 01.092-.15.567.567 0 01.063-.068zM1.7 4.83h0c.003 3.807 1.444 7.46 4.01 10.155 2.568 2.696 6.052 4.215 9.69 4.217v-.3l.001.3a2.849 2.849 0 002.052-.895 3.112 3.112 0 00.847-2.134v0-.584l-.23-.055-4.63-1.113-.231-.056-.107.213-.29.577h0l-.001.002c-.234.476-.406.812-.603 1.003a.474.474 0 01-.253.141c-.085.014-.204.005-.378-.069h0l-.011-.005a11.493 11.493 0 01-4.292-2.86 12.246 12.246 0 01-2.71-4.526l-.004-.013-.005-.012a.65.65 0 01-.068-.37.538.538 0 01.148-.272c.19-.211.523-.399.969-.644 0 0 0 0 0 0l.54-.294.197-.107-.048-.22-1.07-4.873-.052-.236H4.6a2.849 2.849 0 00-2.052.896A3.112 3.112 0 001.7 4.83z" fill="#FF8B00" stroke="#1B1B1B" stroke-width=".6"/></svg>