<svg width="25" height="25" viewBox="0 0 25 25" fill="none" xmlns="http://www.w3.org/2000/svg">
<path d="M22.4991 11.6875L17.7075 7.83333V5.20833C17.733 4.68223 17.5488 4.16748 17.1954 3.77694C16.842 3.38641 16.3481 3.15196 15.8221 3.125H3.94706C3.42473 3.15725 2.93614 3.39399 2.58714 3.78394C2.23813 4.17389 2.05682 4.68564 2.08247 5.20833V15.625C2.0728 16.0387 2.18653 16.4458 2.40915 16.7946C2.63177 17.1434 2.9532 17.4179 3.33247 17.5833C3.14063 18.0527 3.06587 18.5616 3.11462 19.0663C3.16338 19.5709 3.3342 20.0562 3.61234 20.4801C3.89048 20.904 4.26758 21.2538 4.71112 21.4995C5.15465 21.7451 5.6513 21.8792 6.15819 21.89C6.66509 21.9009 7.16702 21.7882 7.62067 21.5618C8.07432 21.3354 8.46606 21.002 8.76211 20.5904C9.05815 20.1788 9.2496 19.7013 9.31993 19.1992C9.39026 18.6971 9.33736 18.1854 9.16581 17.7083H15.7908C15.6195 18.1803 15.5644 18.6867 15.6303 19.1845C15.6962 19.6823 15.8811 20.1569 16.1693 20.5681C16.4575 20.9793 16.8405 21.315 17.286 21.5467C17.7314 21.7785 18.2262 21.8995 18.7283 21.8995C19.2304 21.8995 19.7252 21.7785 20.1706 21.5467C20.6161 21.315 20.9991 20.9793 21.2873 20.5681C21.5755 20.1569 21.7604 19.6823 21.8263 19.1845C21.8922 18.6867 21.8371 18.1803 21.6658 17.7083H21.8741C22.1504 17.7083 22.4154 17.5986 22.6107 17.4032C22.8061 17.2079 22.9158 16.9429 22.9158 16.6667V12.5C22.9126 12.3418 22.8734 12.1864 22.8012 12.0457C22.729 11.9049 22.6257 11.7824 22.4991 11.6875ZM20.8325 13V15.625H17.7075V10.5L20.8325 13ZM7.29081 18.75C7.29081 18.956 7.22971 19.1574 7.11525 19.3287C7.00079 19.5 6.83811 19.6335 6.64777 19.7124C6.45743 19.7912 6.24798 19.8118 6.04592 19.7717C5.84386 19.7315 5.65825 19.6322 5.51257 19.4866C5.36689 19.3409 5.26768 19.1553 5.22749 18.9532C5.18729 18.7512 5.20792 18.5417 5.28676 18.3514C5.36561 18.161 5.49912 17.9983 5.67042 17.8839C5.84172 17.7694 6.04312 17.7083 6.24914 17.7083C6.52541 17.7083 6.79036 17.8181 6.98571 18.0134C7.18106 18.2088 7.29081 18.4737 7.29081 18.75ZM12.4991 15.625H4.16581V5.20833H15.6241V15.625H12.4991ZM19.7908 18.75C19.7908 18.956 19.7297 19.1574 19.6153 19.3287C19.5008 19.5 19.3381 19.6335 19.1478 19.7124C18.9574 19.7912 18.748 19.8118 18.5459 19.7717C18.3439 19.7315 18.1582 19.6322 18.0126 19.4866C17.8669 19.3409 17.7677 19.1553 17.7275 18.9532C17.6873 18.7512 17.7079 18.5417 17.7868 18.3514C17.8656 18.161 17.9991 17.9983 18.1704 17.8839C18.3417 17.7694 18.5431 17.7083 18.7491 17.7083C19.0254 17.7083 19.2904 17.8181 19.4857 18.0134C19.6811 18.2088 19.7908 18.4737 19.7908 18.75Z" fill="#FF8B00"/>
</svg>
